<svg width="72" height="64" viewBox="0 0 72 64" fill="none" xmlns="http://www.w3.org/2000/svg">
<g clip-path="url(#clip0)">
<path d="M36.8735 0.139663L34.5308 0.738018L5.66757 8.1099L3.32481 8.70825C2.18767 9.00004 1.21382 9.72666 0.616922 10.7287C0.0200249 11.7307 -0.151176 12.9263 0.140879 14.0532L10.2996 53.0687C10.5942 54.1949 11.3278 55.1594 12.3396 55.7506C13.3513 56.3418 14.5585 56.5114 15.6963 56.2221L15.7024 56.2206L49.239 47.6551L49.245 47.6535C50.3822 47.3617 51.356 46.6351 51.9529 45.6331C52.5498 44.631 52.721 43.4354 52.429 42.3085L42.2703 3.29309C41.9756 2.16684 41.242 1.20233 40.2303 0.611152C39.2185 0.0199735 38.0113 -0.14959 36.8735 0.139663Z" fill="#F2F2F2"/>
<path d="M37.192 1.36264L34.4172 2.07135L6.41811 9.22254L3.64332 9.93124C2.83353 10.139 2.14003 10.6565 1.71496 11.37C1.2899 12.0836 1.16798 12.935 1.37596 13.7375L11.5346 52.753C11.7444 53.555 12.2669 54.2418 12.9874 54.6628C13.7079 55.0838 14.5675 55.2046 15.3778 54.9986L15.3838 54.997L48.9204 46.4315L48.9265 46.43C49.7363 46.2222 50.4298 45.7047 50.8548 44.9912C51.2799 44.2776 51.4018 43.4262 51.1938 42.6237L41.0351 3.60827C40.8253 2.80625 40.3029 2.1194 39.5824 1.69841C38.862 1.27742 38.0023 1.15666 37.192 1.36264V1.36264Z" fill="white"/>
<path d="M35.0968 13.997L18.1315 18.3301C17.942 18.3785 17.7409 18.3504 17.5723 18.2519C17.4038 18.1534 17.2817 17.9927 17.2328 17.805C17.1839 17.6173 17.2123 17.4181 17.3118 17.2512C17.4112 17.0843 17.5735 16.9633 17.763 16.9149L34.7283 12.5818C34.9178 12.5336 35.1187 12.5619 35.2871 12.6604C35.4555 12.7589 35.5776 12.9196 35.6264 13.1071C35.6752 13.2947 35.6469 13.4938 35.5476 13.6606C35.4483 13.8275 35.2862 13.9485 35.0968 13.997V13.997Z" fill="#F2F2F2"/>
<path d="M38.6658 15.6325L18.7533 20.7182C18.5638 20.7666 18.3627 20.7385 18.1941 20.64C18.0256 20.5415 17.9034 20.3808 17.8546 20.1931C17.8057 20.0055 17.8341 19.8062 17.9336 19.6393C18.033 19.4724 18.1953 19.3514 18.3848 19.303L38.2973 14.2172C38.4867 14.1688 38.6879 14.197 38.8564 14.2955C39.025 14.3939 39.1471 14.5547 39.196 14.7424C39.2448 14.93 39.2164 15.1292 39.117 15.2962C39.0176 15.4631 38.8552 15.5841 38.6658 15.6325V15.6325Z" fill="#F2F2F2"/>
<path d="M37.8835 24.6994L20.9182 29.0324C20.8243 29.0564 20.7267 29.0618 20.6307 29.0484C20.5348 29.035 20.4425 29.003 20.359 28.9542C20.2756 28.9055 20.2026 28.8409 20.1444 28.7642C20.0861 28.6875 20.0437 28.6002 20.0195 28.5073C19.9953 28.4144 19.9898 28.3177 20.0033 28.2226C20.0169 28.1276 20.0492 28.0362 20.0984 27.9535C20.1477 27.8709 20.2129 27.7986 20.2903 27.7409C20.3677 27.6832 20.4559 27.6412 20.5497 27.6172L37.5151 23.2841C37.6089 23.2602 37.7066 23.2547 37.8025 23.2682C37.8984 23.2816 37.9908 23.3136 38.0742 23.3624C38.1577 23.4111 38.2306 23.4757 38.2889 23.5524C38.3471 23.629 38.3896 23.7163 38.4138 23.8093C38.438 23.9022 38.4434 23.9989 38.4299 24.0939C38.4163 24.189 38.384 24.2804 38.3348 24.3631C38.2855 24.4457 38.2204 24.518 38.1429 24.5757C38.0655 24.6334 37.9774 24.6754 37.8835 24.6994V24.6994Z" fill="#F2F2F2"/>
<path d="M41.4525 26.3351L21.54 31.4209C21.4462 31.4449 21.3485 31.4503 21.2526 31.4369C21.1566 31.4234 21.0643 31.3914 20.9808 31.3427C20.8974 31.2939 20.8244 31.2293 20.7662 31.1527C20.7079 31.076 20.6655 30.9887 20.6413 30.8958C20.6171 30.8028 20.6116 30.7061 20.6252 30.6111C20.6387 30.5161 20.671 30.4246 20.7203 30.342C20.7695 30.2593 20.8347 30.1871 20.9121 30.1294C20.9895 30.0717 21.0777 30.0296 21.1715 30.0057L41.084 24.9199C41.2735 24.8715 41.4746 24.8996 41.6431 24.9981C41.8117 25.0966 41.9338 25.2573 41.9827 25.445C42.0316 25.6327 42.0031 25.8319 41.9037 25.9988C41.8043 26.1657 41.642 26.2867 41.4525 26.3351Z" fill="#F2F2F2"/>
<path d="M40.6702 35.4022L23.7048 39.7353C23.5154 39.7835 23.3144 39.7553 23.146 39.6568C22.9775 39.5583 22.8555 39.3976 22.8066 39.21C22.7578 39.0225 22.7862 38.8233 22.8855 38.6565C22.9848 38.4896 23.147 38.3686 23.3364 38.3201L40.3017 33.987C40.4912 33.9386 40.6923 33.9668 40.8609 34.0652C41.0294 34.1637 41.1516 34.3245 41.2004 34.5121C41.2493 34.6998 41.2209 34.899 41.1214 35.0659C41.022 35.2329 40.8597 35.3538 40.6702 35.4022Z" fill="#F2F2F2"/>
<path d="M44.2392 37.0375L24.3267 42.1233C24.2328 42.1473 24.1351 42.1529 24.0391 42.1395C23.9431 42.1261 23.8507 42.0941 23.7672 42.0454C23.6837 41.9966 23.6107 41.9321 23.5524 41.8553C23.494 41.7786 23.4516 41.6913 23.4274 41.5983C23.4032 41.5053 23.3977 41.4086 23.4113 41.3135C23.4248 41.2184 23.4572 41.1269 23.5065 41.0442C23.5558 40.9616 23.6211 40.8893 23.6986 40.8316C23.7761 40.774 23.8643 40.732 23.9582 40.7081L43.8707 35.6223C44.0602 35.5739 44.2613 35.602 44.4299 35.7005C44.5984 35.799 44.7205 35.9597 44.7694 36.1474C44.8183 36.3351 44.7899 36.5343 44.6904 36.7012C44.591 36.8681 44.4287 36.9891 44.2392 37.0375V37.0375Z" fill="#F2F2F2"/>
<path d="M15.2352 22.773L9.23136 24.3064C9.14051 24.3295 9.04412 24.316 8.96333 24.2688C8.88254 24.2216 8.82396 24.1445 8.80044 24.0546L7.42226 18.7615C7.39893 18.6716 7.4126 18.5761 7.46027 18.4961C7.50793 18.4161 7.58569 18.358 7.67649 18.3347L13.6804 16.8013C13.7712 16.7782 13.8676 16.7917 13.9484 16.8389C14.0292 16.8862 14.0878 16.9632 14.1113 17.0531L15.4895 22.3462C15.5128 22.4361 15.4991 22.5316 15.4515 22.6116C15.4038 22.6916 15.326 22.7497 15.2352 22.773V22.773Z" fill="#E6E6E6"/>
<path d="M18.022 33.4756L12.0181 35.009C11.9272 35.0321 11.8308 35.0186 11.75 34.9714C11.6693 34.9242 11.6107 34.8472 11.5872 34.7572L10.209 29.4642C10.1856 29.3742 10.1993 29.2787 10.247 29.1987C10.2946 29.1187 10.3724 29.0607 10.4632 29.0374L16.4671 27.5039C16.5579 27.4808 16.6543 27.4944 16.7351 27.5416C16.8159 27.5888 16.8745 27.6658 16.898 27.7557L18.2762 33.0488C18.2995 33.1388 18.2858 33.2343 18.2382 33.3143C18.1905 33.3943 18.1128 33.4523 18.022 33.4756V33.4756Z" fill="#E6E6E6"/>
<path d="M20.8086 44.1782L14.8047 45.7116C14.7139 45.7347 14.6175 45.7212 14.5367 45.674C14.4559 45.6268 14.3973 45.5498 14.3738 45.4599L12.9956 40.1668C12.9723 40.0768 12.986 39.9814 13.0336 39.9013C13.0813 39.8213 13.1591 39.7633 13.2499 39.74L19.2537 38.2066C19.3446 38.1835 19.441 38.197 19.5218 38.2442C19.6026 38.2914 19.6611 38.3684 19.6847 38.4584L21.0628 43.7514C21.0862 43.8414 21.0725 43.9369 21.0248 44.0169C20.9772 44.0969 20.8994 44.1549 20.8086 44.1782V44.1782Z" fill="#E6E6E6"/>
<path d="M60.2721 10.0295H25.6258C24.4511 10.0309 23.3249 10.4936 22.4943 11.3163C21.6636 12.1389 21.1964 13.2543 21.1951 14.4178V54.7096C21.1964 55.8731 21.6636 56.9885 22.4943 57.8111C23.3249 58.6338 24.4511 59.0965 25.6258 59.0978H60.2721C61.4467 59.0965 62.5729 58.6338 63.4036 57.8111C64.2342 56.9885 64.7014 55.8731 64.7027 54.7096V14.4178C64.7014 13.2543 64.2342 12.1389 63.4036 11.3163C62.5729 10.4936 61.4467 10.0309 60.2721 10.0295V10.0295Z" fill="#E6E6E6"/>
<path d="M60.2721 11.2927H25.6258C24.7893 11.2937 23.9873 11.6232 23.3958 12.209C22.8042 12.7949 22.4715 13.5892 22.4706 14.4177V54.7095C22.4715 55.538 22.8042 56.3323 23.3958 56.9182C23.9873 57.504 24.7893 57.8336 25.6258 57.8345H60.2721C61.1087 57.8335 61.9106 57.504 62.5022 56.9182C63.0937 56.3323 63.4264 55.538 63.4273 54.7095V14.4177C63.4264 13.5892 63.0937 12.7949 62.5022 12.209C61.9106 11.6232 61.1087 11.2937 60.2721 11.2927V11.2927Z" fill="white"/>
<path d="M63.9119 64C68.3788 64 72 60.4136 72 55.9895C72 51.5654 68.3788 47.979 63.9119 47.979C59.445 47.979 55.8239 51.5654 55.8239 55.9895C55.8239 60.4136 59.445 64 63.9119 64Z" fill="#6C63FF"/>
<path d="M67.7801 54.9446H64.9669V52.1584C64.9669 51.8813 64.8558 51.6155 64.6579 51.4196C64.4601 51.2236 64.1917 51.1135 63.9119 51.1135C63.6321 51.1135 63.3638 51.2236 63.166 51.4196C62.9681 51.6155 62.857 51.8813 62.857 52.1584V54.9446H60.0437C59.7639 54.9446 59.4956 55.0547 59.2978 55.2507C59.0999 55.4466 58.9888 55.7124 58.9888 55.9895C58.9888 56.2666 59.0999 56.5324 59.2978 56.7283C59.4956 56.9243 59.7639 57.0343 60.0437 57.0343H62.857V59.8206C62.857 60.0977 62.9681 60.3635 63.166 60.5594C63.3638 60.7554 63.6321 60.8655 63.9119 60.8655C64.1917 60.8655 64.4601 60.7554 64.6579 60.5594C64.8558 60.3635 64.9669 60.0977 64.9669 59.8206V57.0343H67.7801C68.0599 57.0343 68.3283 56.9243 68.5261 56.7283C68.724 56.5324 68.8351 56.2666 68.8351 55.9895C68.8351 55.7124 68.724 55.4466 68.5261 55.2507C68.3283 55.0547 68.0599 54.9446 67.7801 54.9446V54.9446Z" fill="white"/>
<path d="M55.0578 33.4332H37.5374C37.4405 33.4333 37.3444 33.4145 37.2548 33.3778C37.1652 33.3411 37.0838 33.2873 37.0152 33.2195C36.9466 33.1516 36.8921 33.071 36.855 32.9823C36.8179 32.8936 36.7988 32.7985 36.7988 32.7024C36.7988 32.6064 36.8179 32.5113 36.855 32.4226C36.8921 32.3339 36.9466 32.2533 37.0152 32.1854C37.0838 32.1176 37.1652 32.0637 37.2548 32.0271C37.3444 31.9904 37.4405 31.9716 37.5374 31.9717H55.0578C55.2533 31.9719 55.4408 32.049 55.579 32.186C55.7172 32.323 55.7948 32.5088 55.7948 32.7024C55.7948 32.8961 55.7172 33.0819 55.579 33.2189C55.4408 33.3559 55.2533 33.433 55.0578 33.4332V33.4332Z" fill="#E6E6E6"/>
<path d="M58.1013 35.8995H37.5374C37.4405 35.8996 37.3444 35.8808 37.2548 35.8441C37.1652 35.8074 37.0838 35.7536 37.0152 35.6857C36.9466 35.6179 36.8921 35.5373 36.855 35.4486C36.8179 35.3599 36.7988 35.2648 36.7988 35.1687C36.7988 35.0727 36.8179 34.9776 36.855 34.8889C36.8921 34.8002 36.9466 34.7196 37.0152 34.6517C37.0838 34.5839 37.1652 34.5301 37.2548 34.4934C37.3444 34.4567 37.4405 34.4379 37.5374 34.438H58.1013C58.297 34.438 58.4847 34.515 58.6231 34.652C58.7614 34.7891 58.8392 34.9749 58.8392 35.1687C58.8392 35.3625 58.7614 35.5484 58.6231 35.6854C58.4847 35.8225 58.297 35.8995 58.1013 35.8995Z" fill="#E6E6E6"/>
<path d="M55.0578 44.4857H37.5374C37.4405 44.4858 37.3444 44.467 37.2548 44.4303C37.1652 44.3936 37.0838 44.3398 37.0152 44.2719C36.9466 44.2041 36.8921 44.1235 36.855 44.0348C36.8179 43.946 36.7988 43.8509 36.7988 43.7549C36.7988 43.6589 36.8179 43.5638 36.855 43.4751C36.8921 43.3864 36.9466 43.3058 37.0152 43.2379C37.0838 43.17 37.1652 43.1162 37.2548 43.0796C37.3444 43.0429 37.4405 43.0241 37.5374 43.0242H55.0578C55.2535 43.0242 55.4411 43.1012 55.5795 43.2382C55.7179 43.3752 55.7956 43.5611 55.7956 43.7549C55.7956 43.9487 55.7179 44.1346 55.5795 44.2716C55.4411 44.4087 55.2535 44.4857 55.0578 44.4857V44.4857Z" fill="#E6E6E6"/>
<path d="M58.1014 46.952H37.5374C37.4405 46.9521 37.3444 46.9333 37.2548 46.8966C37.1652 46.8599 37.0838 46.8061 37.0152 46.7383C36.9466 46.6704 36.8921 46.5898 36.855 46.5011C36.8179 46.4124 36.7988 46.3173 36.7988 46.2212C36.7988 46.1252 36.8179 46.0301 36.855 45.9414C36.8921 45.8527 36.9466 45.7721 37.0152 45.7042C37.0838 45.6364 37.1652 45.5825 37.2548 45.5459C37.3444 45.5092 37.4405 45.4904 37.5374 45.4905H58.1014C58.1983 45.4904 58.2944 45.5092 58.384 45.5459C58.4736 45.5825 58.555 45.6364 58.6236 45.7042C58.6922 45.7721 58.7467 45.8527 58.7838 45.9414C58.8209 46.0301 58.84 46.1252 58.84 46.2212C58.84 46.3173 58.8209 46.4124 58.7838 46.5011C58.7467 46.5898 58.6922 46.6704 58.6236 46.7383C58.555 46.8061 58.4736 46.8599 58.384 46.8966C58.2944 46.9333 58.1983 46.9521 58.1014 46.952Z" fill="#E6E6E6"/>
<path d="M33.6127 37.0188H27.4124C27.3186 37.0187 27.2287 36.9818 27.1624 36.9161C27.0961 36.8504 27.0588 36.7613 27.0587 36.6684V31.2022C27.0588 31.1093 27.0961 31.0202 27.1624 30.9545C27.2287 30.8889 27.3186 30.8519 27.4124 30.8518H33.6127C33.7065 30.8519 33.7965 30.8889 33.8628 30.9545C33.9291 31.0202 33.9664 31.1093 33.9665 31.2022V36.6684C33.9664 36.7613 33.9291 36.8504 33.8628 36.9161C33.7965 36.9818 33.7065 37.0187 33.6127 37.0188V37.0188Z" fill="#E6E6E6"/>
<path d="M33.6127 48.0716H27.4124C27.3186 48.0715 27.2287 48.0345 27.1624 47.9688C27.0961 47.9031 27.0588 47.8141 27.0587 47.7212V42.2549C27.0588 42.162 27.0961 42.073 27.1624 42.0073C27.2287 41.9416 27.3186 41.9046 27.4124 41.9045H33.6127C33.7065 41.9046 33.7965 41.9416 33.8628 42.0073C33.9291 42.073 33.9664 42.162 33.9665 42.2549V47.7212C33.9664 47.8141 33.9291 47.9031 33.8628 47.9688C33.7965 48.0345 33.7065 48.0715 33.6127 48.0716V48.0716Z" fill="#E6E6E6"/>
<path d="M55.0773 21.129H42.1602C41.9645 21.129 41.7768 21.052 41.6384 20.9149C41.5001 20.7779 41.4223 20.592 41.4223 20.3982C41.4223 20.2044 41.5001 20.0186 41.6384 19.8815C41.7768 19.7445 41.9645 19.6675 42.1602 19.6675H55.0773C55.2729 19.6675 55.4606 19.7445 55.599 19.8815C55.7374 20.0186 55.8151 20.2044 55.8151 20.3982C55.8151 20.592 55.7374 20.7779 55.599 20.9149C55.4606 21.052 55.2729 21.129 55.0773 21.129Z" fill="#CCCCCC"/>
<path d="M58.1208 23.5953H42.1602C42.0633 23.5953 41.9673 23.5764 41.8778 23.5397C41.7883 23.503 41.707 23.4491 41.6384 23.3813C41.5699 23.3134 41.5156 23.2329 41.4785 23.1442C41.4414 23.0555 41.4223 22.9605 41.4223 22.8646C41.4223 22.7686 41.4414 22.6736 41.4785 22.5849C41.5156 22.4962 41.5699 22.4157 41.6384 22.3478C41.707 22.28 41.7883 22.2261 41.8778 22.1894C41.9673 22.1527 42.0633 22.1338 42.1602 22.1338H58.1208C58.3165 22.1338 58.5042 22.2108 58.6425 22.3478C58.7809 22.4849 58.8586 22.6707 58.8586 22.8646C58.8586 23.0584 58.7809 23.2442 58.6425 23.3813C58.5042 23.5183 58.3165 23.5953 58.1208 23.5953V23.5953Z" fill="#CCCCCC"/>
<path d="M39.3014 26.5842H27.393C27.2992 26.5841 27.2093 26.5472 27.143 26.4815C27.0766 26.4158 27.0393 26.3268 27.0392 26.2339V17.0291C27.0393 16.9362 27.0766 16.8471 27.143 16.7815C27.2093 16.7158 27.2992 16.6788 27.393 16.6787H39.3014C39.3952 16.6788 39.4851 16.7158 39.5515 16.7815C39.6178 16.8471 39.6551 16.9362 39.6552 17.0291V26.2339C39.6551 26.3268 39.6178 26.4158 39.5515 26.4815C39.4851 26.5472 39.3952 26.5841 39.3014 26.5842V26.5842Z" fill="#6C63FF"/>
</g>
<defs>
<clipPath id="clip0">
<rect width="72" height="64" fill="white"/>
</clipPath>
</defs>
</svg>
