<svg width="175" height="47" viewBox="0 0 175 47" fill="none" xmlns="http://www.w3.org/2000/svg">
<path d="M11.2765 9.48198C13.9463 9.48198 16.3351 10.0792 18.4429 11.2736C20.5647 12.468 22.2228 14.1261 23.4172 16.2479C24.6116 18.3556 25.2088 20.7515 25.2088 23.4353C25.2088 26.077 24.6186 28.4448 23.4382 30.5385C22.2579 32.6181 20.6068 34.2411 18.485 35.4074C16.3773 36.5737 13.9744 37.1568 11.2765 37.1568H0V9.48198H11.2765ZM10.6652 31.4659C13.0821 31.4659 15.0002 30.7282 16.4194 29.2527C17.8527 27.7633 18.5693 25.8241 18.5693 23.4353C18.5693 20.9622 17.8527 18.9739 16.4194 17.4704C15.0002 15.9528 13.0821 15.194 10.6652 15.194H6.30219V31.4659H10.6652Z" fill="black"/>
<path d="M31.9325 14.8357C30.8084 14.8357 29.8529 14.4633 29.066 13.7186C28.2931 12.9738 27.9067 12.0675 27.9067 10.9996C27.9067 9.90353 28.2861 8.99017 29.0449 8.25949C29.8177 7.5288 30.7803 7.16345 31.9325 7.16345C33.0847 7.16345 34.0403 7.5288 34.7991 8.25949C35.5578 8.99017 35.9372 9.90353 35.9372 10.9996C35.9372 12.0394 35.5508 12.9387 34.778 13.6975C34.0051 14.4563 33.0566 14.8357 31.9325 14.8357ZM28.9184 17.6812H34.9466V37.1568H28.9184V17.6812Z" fill="black"/>
<path d="M59.9867 17.6812V37.199C59.9867 40.192 59.0312 42.5738 57.1202 44.3443C55.2092 46.1148 52.5674 47 49.195 47C47.2699 47 45.5346 46.6487 43.9889 45.9462C42.4572 45.2436 41.2347 44.2459 40.3214 42.9531C39.4221 41.6744 38.9022 40.185 38.7616 38.4847H44.7055C44.8741 39.5526 45.3659 40.3536 46.1809 40.8875C47.01 41.4215 48.0147 41.6885 49.195 41.6885C50.6845 41.6885 51.8508 41.3021 52.6939 40.5292C53.537 39.7704 53.9586 38.7447 53.9586 37.4519V34.5221C53.3824 35.2388 52.5604 35.8219 51.4925 36.2716C50.4246 36.7212 49.2442 36.946 47.9515 36.946C46.1669 36.946 44.565 36.5385 43.1458 35.7235C41.7406 34.8945 40.6375 33.7352 39.8366 32.2457C39.0356 30.7422 38.6352 29.0279 38.6352 27.1028C38.6352 25.1215 39.0427 23.3651 39.8577 21.8334C40.6727 20.3018 41.7898 19.1144 43.209 18.2713C44.6423 17.4282 46.2371 17.0067 47.9936 17.0067C49.3145 17.0067 50.5229 17.2456 51.6189 17.7233C52.715 18.187 53.5511 18.8264 54.1272 19.6414L54.3801 17.6812H59.9867ZM49.2372 31.7188C50.5018 31.7188 51.5768 31.2762 52.4621 30.3909C53.3614 29.4916 53.811 28.3534 53.811 26.9764C53.811 25.5712 53.3614 24.426 52.4621 23.5407C51.5768 22.6555 50.4878 22.2128 49.195 22.2128C47.9023 22.2128 46.8414 22.6625 46.0123 23.5618C45.1973 24.4471 44.7898 25.5852 44.7898 26.9764C44.7898 28.3815 45.2043 29.5267 46.0334 30.412C46.8765 31.2832 47.9444 31.7188 49.2372 31.7188Z" fill="black"/>
<path d="M67.5114 14.8357C66.3873 14.8357 65.4318 14.4633 64.6449 13.7186C63.872 12.9738 63.4856 12.0675 63.4856 10.9996C63.4856 9.90353 63.865 8.99017 64.6238 8.25949C65.3966 7.5288 66.3592 7.16345 67.5114 7.16345C68.6637 7.16345 69.6192 7.5288 70.378 8.25949C71.1368 8.99017 71.5162 9.90353 71.5162 10.9996C71.5162 12.0394 71.1297 12.9387 70.3569 13.6975C69.5841 14.4563 68.6356 14.8357 67.5114 14.8357ZM64.4973 17.6812H70.5255V37.1568H64.4973V17.6812Z" fill="black"/>
<path d="M86.6709 22.6555H83.0034V37.1568H76.9753V22.6555H73.3921V17.6812H76.9753V12.6436H83.0034V17.6812H86.6709V22.6555Z" fill="black"/>
<path d="M109.962 17.6812V37.1568H104.165V34.9226C103.505 35.7798 102.584 36.4613 101.404 36.9671C100.224 37.473 98.9451 37.7259 97.568 37.7259C95.7554 37.7259 94.1464 37.3044 92.7413 36.4613C91.3502 35.6041 90.2752 34.4167 89.5164 32.8992C88.7576 31.3675 88.3782 29.59 88.3782 27.5665C88.3782 25.4588 88.7857 23.611 89.6007 22.0231C90.4157 20.4353 91.5609 19.2058 93.0364 18.3346C94.5258 17.4493 96.2191 17.0067 98.1161 17.0067C100.912 17.0067 103.041 17.8638 104.503 19.5781L104.903 17.6812H109.962ZM99.1699 32.2879C100.575 32.2879 101.713 31.8382 102.584 30.9389C103.47 30.0256 103.912 28.8171 103.912 27.3136C103.912 25.8522 103.47 24.6789 102.584 23.7936C101.713 22.8943 100.575 22.4447 99.1699 22.4447C97.7648 22.4447 96.6406 22.9014 95.7975 23.8147C94.9544 24.714 94.5329 25.8944 94.5329 27.3558C94.5329 28.8171 94.9544 30.0045 95.7975 30.9179C96.6547 31.8312 97.7788 32.2879 99.1699 32.2879Z" fill="black"/>
<path d="M114.578 7.54285H120.606V37.1568H114.578V7.54285Z" fill="black"/>
<path d="M128.299 14.8357C127.175 14.8357 126.219 14.4633 125.433 13.7186C124.66 12.9738 124.273 12.0675 124.273 10.9996C124.273 9.90353 124.653 8.99017 125.411 8.25949C126.184 7.5288 127.147 7.16345 128.299 7.16345C129.451 7.16345 130.407 7.5288 131.166 8.25949C131.924 8.99017 132.304 9.90353 132.304 10.9996C132.304 12.0394 131.917 12.9387 131.145 13.6975C130.372 14.4563 129.423 14.8357 128.299 14.8357ZM125.285 17.6812H131.313V37.1568H125.285V17.6812Z" fill="black"/>
<path d="M135.255 31.8453L143.981 22.9505H135.255V17.6812H151.569V23.0349L142.59 31.8031H151.569V37.1568H135.255V31.8453Z" fill="black"/>
<path d="M174.501 30.8968C174.094 32.9343 172.991 34.5854 171.192 35.85C169.393 37.1006 167.243 37.7259 164.742 37.7259C162.705 37.7259 160.906 37.2973 159.346 36.4402C157.787 35.569 156.578 34.3535 155.721 32.7938C154.864 31.22 154.435 29.4073 154.435 27.3558C154.435 25.2902 154.864 23.4705 155.721 21.8967C156.578 20.3229 157.787 19.1144 159.346 18.2713C160.906 17.4282 162.663 17.0067 164.616 17.0067C166.541 17.0067 168.248 17.4071 169.738 18.2081C171.241 19.009 172.4 20.1262 173.215 21.5594C174.044 22.9786 174.459 24.5946 174.459 26.4073C174.459 27.419 174.375 28.2972 174.206 29.042H160.379C160.435 30.1942 160.857 31.1146 161.644 31.8031C162.445 32.4917 163.478 32.8359 164.742 32.8359C165.698 32.8359 166.52 32.6603 167.208 32.309C167.897 31.9436 168.368 31.4729 168.62 30.8968H174.501ZM168.283 25.1215C168.255 24.1379 167.876 23.358 167.145 22.7819C166.428 22.2058 165.515 21.9177 164.405 21.9177C163.281 21.9177 162.353 22.2058 161.623 22.7819C160.906 23.358 160.52 24.1379 160.463 25.1215H168.283Z" fill="black"/>
<path fill-rule="evenodd" clip-rule="evenodd" d="M45.5298 3.14237C39.4891 4.33349 34.8508 8.4395 32.4456 11.8754L30.6775 10.6377C33.3085 6.8791 38.3827 2.35174 45.1122 1.0248C51.9212 -0.317825 60.1845 1.66146 69.0165 10.4935L67.4903 12.0196C59.0555 3.58489 51.4909 1.96693 45.5298 3.14237Z" fill="black"/>
</svg>
